<svg xmlns="http://www.w3.org/2000/svg" version="1.1" xmlns:xlink="http://www.w3.org/1999/xlink" width="512" height="512" x="0" y="0" viewBox="0 0 512 512" style="enable-background:new 0 0 512 512" xml:space="preserve" class=""><g transform="matrix(1.029999999999998,0,0,1.029999999999998,-7.6800004577631285,-7.679999313354045)"><path d="M375.33 200.42h-31.42c-2.25 0-4.32 1.26-5.34 3.27l-30.25 59.24H154.2V169.5c0-3.31-2.69-6-6-6h-23.28c-3.31 0-6 2.69-6 6v122.7c0 3.31 2.69 6 6 6h49.25v1.31c0 12.57 10.22 22.79 22.79 22.79h3.64v60.35c0 2.14 1.14 4.12 3 5.2l84.52 48.8V491c0 3.31 2.69 6 6 6h50.4c3.31 0 6-2.69 6-6v-86.9c0-2.14-1.14-4.12-3-5.2L263 350.1v-27.79h3.64c12.57 0 22.79-10.23 22.79-22.79v-1.31h36.8c2.25 0 4.32-1.26 5.34-3.27l30.25-59.24h13.5c3.31 0 6-2.69 6-6v-23.28c.01-3.31-2.67-6-5.99-6zM254.01 358.77l84.52 48.8V485h-38.4v-51.8c0-2.14-1.14-4.12-3-5.2l-84.52-48.8v-56.89h38.4v31.25c0 2.16 1.14 4.14 3 5.21zm23.43-59.25c0 5.95-4.84 10.79-10.79 10.79h-69.68c-5.95 0-10.79-4.84-10.79-10.79v-1.31h91.26zm91.89-75.82h-11.17c-2.25 0-4.32 1.26-5.34 3.27l-30.25 59.24H130.92v-110.7h11.28v93.43c0 3.31 2.69 6 6 6h163.79c2.25 0 4.32-1.26 5.34-3.27l30.25-59.24h21.75zm-161.62-26.27c6.08 2.44 12.41 3.68 18.81 3.68 12.33 0 24.21-4.56 34.61-13.24 12.58 6.28 26.57 9.58 40.73 9.58 50.3 0 91.22-40.92 91.22-91.23 0-50.3-40.92-91.22-91.22-91.22s-91.22 40.92-91.22 91.22c0 19.54 6.34 38.68 17.92 54.31a79.901 79.901 0 0 1-22.26 26.57c-1.71 1.31-2.59 3.44-2.29 5.58s1.7 3.95 3.7 4.75zm33.32-35.11c.96-2.07.65-4.51-.79-6.29-11.36-14.03-17.62-31.72-17.62-49.81 0-43.68 35.54-79.22 79.22-79.22 19.69 0 37.71 7.23 51.58 19.16l-33.69 33.69c-13.27-9.27-31.72-7.99-43.56 3.85l-4.56 4.56-23.42 14.57c-1.55.97-2.58 2.59-2.79 4.41s.42 3.63 1.72 4.93l48.79 48.79a6.004 6.004 0 0 0 4.93 1.72 6.018 6.018 0 0 0 4.41-2.79l14.57-23.43 4.56-4.56c11.82-11.82 13.11-30.23 3.84-43.55l33.7-33.7c11.93 13.87 19.16 31.89 19.16 51.58 0 43.69-35.54 79.23-79.22 79.23-13.55 0-26.92-3.48-38.67-10.06a6.003 6.003 0 0 0-7.06.88c-8.87 8.4-19.1 12.84-29.61 12.84-1.36 0-2.72-.07-4.08-.22 7.71-7.68 14.05-16.71 18.59-26.58zm33.47-61.72 32.98 32.98-8.42 13.55-38.1-38.1zm41.39 22.81-.8.8-31.23-31.23.8-.8c8.6-8.6 22.59-8.6 31.2 0l.03.03c8.61 8.61 8.61 22.6 0 31.2z" fill="#ff610d" opacity="1" data-original="#000000" class=""></path></g></svg>