<svg xmlns="http://www.w3.org/2000/svg" version="1.1" xmlns:xlink="http://www.w3.org/1999/xlink" width="512" height="512" x="0" y="0" viewBox="0 0 64 64" style="enable-background:new 0 0 512 512" xml:space="preserve" class=""><g><path d="M32 2a30 30 0 1 0 30 30A30.037 30.037 0 0 0 32 2zm6.07 11.76 12.2 12.19a7.814 7.814 0 0 0-5.12 5.11L32.96 18.87a4.214 4.214 0 0 1 1.55-3.56 4.231 4.231 0 0 1 3.56-1.55zm-10.3-5.18a4.286 4.286 0 0 1 3.56-1.56l5.06 5.07a6.954 6.954 0 0 0-3.18 1.93 6.96 6.96 0 0 0-1.92 3.18l-5.07-5.07a4.223 4.223 0 0 1 1.55-3.55zm-6.4 6.39a4.298 4.298 0 0 1 3.56-1.55l11.99 12a7.841 7.841 0 0 0-5.1 5.11l-12-11.99a4.296 4.296 0 0 1 1.55-3.57zm16.09 23.79a6.905 6.905 0 0 0-3.18 1.93 7.032 7.032 0 0 0-1.93 3.18l-12.19-12.2a4.223 4.223 0 0 1 1.55-3.56 4.257 4.257 0 0 1 3.55-1.55zM14.97 21.37a4.243 4.243 0 0 1 3.56-1.54l5.06 5.06a7.009 7.009 0 0 0-3.18 1.92 6.97 6.97 0 0 0-1.92 3.18l-5.07-5.05a4.296 4.296 0 0 1 1.55-3.57zm-7.94 9.97a4.282 4.282 0 0 1 1.54-3.57c1.65-1.64 3.08-1.62 3.56-1.54l12 12a6.787 6.787 0 0 0-3.18 1.92 6.905 6.905 0 0 0-1.93 3.18zm27.58 22.48A7.176 7.176 0 0 0 32.68 57L20.69 45a4.264 4.264 0 0 1 1.55-3.56 4.235 4.235 0 0 1 3.55-1.54l12 11.99a6.905 6.905 0 0 0-3.18 1.93zm6.4-6.4a7.084 7.084 0 0 0-1.93 3.18l-5.06-5.06a4.271 4.271 0 0 1 1.55-3.57 4.267 4.267 0 0 1 3.57-1.54l5.05 5.06a6.905 6.905 0 0 0-3.18 1.93zm6.4-6.41a7.107 7.107 0 0 0-1.93 3.19L33.49 32.21a4.263 4.263 0 0 1 1.55-3.57c1.66-1.65 3.08-1.62 3.56-1.54l12 11.98a7.107 7.107 0 0 0-3.19 1.93zm4.48-3.21-5.06-5.06c-.08-.5-.1-1.91 1.54-3.57 1.66-1.65 3.09-1.62 3.56-1.54L57 32.68a7.2 7.2 0 0 0-3.19 1.93 6.982 6.982 0 0 0-1.92 3.19z" fill="#ff5a13" opacity="1" data-original="#000000" class=""></path></g></svg>