<svg xmlns="http://www.w3.org/2000/svg" version="1.1" xmlns:xlink="http://www.w3.org/1999/xlink" width="512" height="512" x="0" y="0" viewBox="0 0 226.912 237.851" style="enable-background:new 0 0 512 512" xml:space="preserve" class=""><g transform="matrix(1.0100000000000002,0,0,1.0100000000000002,-1.134560089111332,-1.18926002502441)"><path d="M173.815 138.704a10.223 10.223 0 0 1 1.57 6.73l1.585 3.444 3.6-1.657-8.168-17.752 4.4-2.025-1.655-3.6-12.402 5.706 1.656 3.6 4.4-2.025 2.127 4.62a10.266 10.266 0 0 1 2.887 2.96zM159.245 47.746l-2.423-11.767 4.168 2.043 2.738-5.583-8.493-4.164-.249-1.211a7.998 7.998 0 0 0-9.449-6.223 7.982 7.982 0 0 0-2.925 1.245l-16.627-8.151 4.134-8.433L118.896 0l-4.134 8.432L111.844 7l-2.739 5.584 2.92 1.43-4.134 8.432 11.223 5.503 4.134-8.431 16.016 7.852a7.973 7.973 0 0 0 .05 2.919l2.776 13.482c1.112-.152 2.239-.24 3.377-.24 4.93 0 9.715 1.494 13.778 4.214zM72.784 217.507v6.097l-29.17 14.247h41.94v-5.28l89.395-43.662v48.942h12.77v-55.18l39.193-19.142v-15.204l-39.192 19.142v-6.097l39.192-19.143v-15.205L0 237.852h31.13zm9.138 12.307a3.303 3.303 0 1 1-6.606 0 3.303 3.303 0 0 1 6.606 0zm95.724-51.192a3.303 3.303 0 1 1 6.606 0 3.303 3.303 0 0 1-6.606 0zm-2.697-4.917-89.394 43.662v-6.098l89.394-43.662zm6-19.193a3.302 3.302 0 1 1 0 6.605 3.302 3.302 0 0 1 0-6.605zM78.62 204.136a3.303 3.303 0 1 1 0 6.606 3.303 3.303 0 0 1 0-6.606z" fill="#ff610d" opacity="1" data-original="#000000"></path><path d="M130.747 85.358c9.403 8.125 23.61 7.089 31.735-2.314s7.09-23.61-2.314-31.736c-9.402-8.124-23.61-7.088-31.735 2.315-8.125 9.402-7.088 23.61 2.314 31.735z" fill="#ff610d" opacity="1" data-original="#000000"></path><path d="M49.483 134.502a12.464 12.464 0 0 0 2.809 4.004l28.918 27.607-42.505 21.133c-6.181 3.073-8.701 10.576-5.628 16.757a12.502 12.502 0 0 0 11.203 6.938c1.87 0 3.768-.421 5.556-1.31l58.458-29.064a12.5 12.5 0 0 0 3.066-20.235l-32.199-30.739C85.324 122.28 92.96 115.71 100.133 110l-5.124-17.1c-.79-2.637-.506-5.422.799-7.844a10.231 10.231 0 0 1 6.111-4.98c.965-.288 1.96-.436 2.962-.436 4.51 0 8.565 3.022 9.86 7.347l2.633 8.786c1.34-1.686 2.444-3.514 3.245-5.392l37.76 13.222a8.004 8.004 0 0 0 7.91-1.528 8 8 0 0 0 2.57-7.635l-2.597-12.61a24.792 24.792 0 0 1-20.813 11.304c-5.946 0-11.7-2.144-16.206-6.036-4.108-3.55-6.88-8.24-8.011-13.454l-9.915-3.472a7.888 7.888 0 0 0-.8-.234c-5.896-1.988-13.418-1.686-21.284 2.89-18.339 10.816-28.03 19.795-40.598 38.295-6.026 10.507-3.635 17.869.848 23.379z" fill="#ff610d" opacity="1" data-original="#000000"></path><path d="M102.58 82.28a7.999 7.999 0 0 0-5.368 9.96l13.21 44.091a8 8 0 0 0 5.964 5.522l47.064 10.238a8.07 8.07 0 0 0 1.708.184 8 8 0 0 0 1.692-15.82l-42.455-9.234-11.857-39.573a7.997 7.997 0 0 0-9.959-5.368z" fill="#ff610d" opacity="1" data-original="#000000"></path></g></svg>