<svg xmlns="http://www.w3.org/2000/svg" version="1.1" xmlns:xlink="http://www.w3.org/1999/xlink" width="512" height="512" x="0" y="0" viewBox="0 0 100 100" style="enable-background:new 0 0 512 512" xml:space="preserve"><g transform="matrix(1.1299999999999992,0,0,1.1299999999999992,-6.500088024139359,-6.5003988361358225)"><path d="M61.102 27.149a1.658 1.658 0 0 1-.145-.675 1.688 1.688 0 0 1 3.377 0 1.689 1.689 0 0 1-3.232.675zm13.72 9.408L68.66 44.96h19.875a1.68 1.68 0 1 1 0 3.361h-22.34l-3.193 4.355a1.679 1.679 0 0 1-2.349.362 1.683 1.683 0 0 1-.362-2.35l1.736-2.367H46.521c-.109 0-.216-.012-.32-.032l-1.42 1.76c.03.294.034.591.011.889l7.467 7.467h36.276a1.682 1.682 0 0 1 0 3.362H36.438c-.332 0-.64-.1-.9-.266l-.479.593 2.289 10.292c.062.228.125.577.179 1.145h51.008a1.682 1.682 0 0 1 0 3.362h-50.86c.032 2.051.015 4.995-.087 9.257-.002.128-.02.256-.052.38-.04.153-.087.301-.139.447h51.139c.924 0 1.681.756 1.681 1.68s-.757 1.681-1.681 1.681H11.465c-.638 0-1.243-.37-1.512-.959a1.671 1.671 0 0 1 .202-1.781l2.877-3.565 1.443-9.136-.947-14.704-.003-6.828c0-.025.006-.048.007-.074V47.13c0-.925.74-1.681 1.664-1.681l.009.001a1.688 1.688 0 0 1 1.688 1.68v4.554h12.823v-2.085l-5.998-4.195a6.722 6.722 0 0 1-3.424-7.384l1.052-5.158a1.681 1.681 0 0 1 3.294.673l-1.058 5.182a3.37 3.37 0 0 0 1.764 3.746c.072.036.14.078.206.123l4.163 2.912 1.68 1.175 1.681 1.175 5.85 4.093.26.182a1.687 1.687 0 0 0 2.111-.876 1.682 1.682 0 0 0-.312-1.856 1.676 1.676 0 0 0-.516-.372c-.082-.038-.153-.092-.228-.143-.045-.03-.096-.051-.138-.085l-7.027-5.762-1.681-1.378-1.235-1.013a1.672 1.672 0 0 1-.446-.572 1.662 1.662 0 0 1-.169-.764l.161-7.447.008-.348c-.007-1.745-1.616-3.352-3.361-3.352l-.521-.084-4.74-1.58c-.621.101-1.73.756-2.588 1.748-1.008 1.092-1.663 2.571-1.613 3.26v2.185c0 .938-.751 1.675-1.688 1.68l-.009.001c-.924 0-1.664-.74-1.664-1.681v-2.167c.017-1.833.858-3.681 2.487-5.529 1.612-1.752 3.224-2.679 4.917-2.84-.469-1.67-.361-3.502.326-5.204a8.47 8.47 0 0 1 .572-1.148 1.673 1.673 0 0 1-.051-1.358l.629-1.558a6.677 6.677 0 0 1 3.604-3.672 6.67 6.67 0 0 1 5.145-.047l1.559.629c2.933 1.183 3.742 3.689 2.412 7.454l.667 1.568a1.68 1.68 0 0 1-1.547 2.338c-.078 0-.156-.012-.234-.023a8.545 8.545 0 0 1-.287.848 8.174 8.174 0 0 1-2.836 3.626 6.79 6.79 0 0 1 2.184 4.919V38.685l9.008 7.385a5 5 0 0 1 1.016.702l13.637-16.899c.554-.689 1.664-.806 2.369-.253l.002.002c.352.286.57.689.62 1.125.034.454-.084.89-.37 1.243l-.977 1.21h14.736l3.697-5.042H69.36c-.924 0-1.664-.756-1.664-1.68s.74-1.681 1.664-1.681h19.175c.924 0 1.681.756 1.681 1.681 0 .924-.757 1.68-1.681 1.68h-7.551L77.287 33.2h11.248a1.68 1.68 0 1 1 0 3.361H74.822zM34.081 73.175l-1.72-7.737-.466-2.096-.468-2.105-1.377-6.193H16.885v5.04l.955 14.781c.007.124.002.249-.017.371l-.563 3.554-.529 3.34-.465 2.938c-.009.102-.008.205.002.307.07.7.576 1.361 1.285 1.539a1.862 1.862 0 0 0 1.544-.274 1.64 1.64 0 0 0 .707-1.198l.726-5.349.436-3.212.438-3.229.033-.238V61.763c0-.928.752-1.68 1.681-1.68h2.512c.768 0 1.437.52 1.628 1.263l.981 3.836.522 2.039.519 2.03 1.095 4.277.234.916c.032.124.049.251.052.379l.046 2.066.168 7.548c.004.154-.014.308-.052.457-.107.416-.043.851.18 1.224a1.76 1.76 0 0 0 1.106.8c.907.222 1.825-.258 2.123-1.08.073-3.139.103-6.49.075-8.95-.018-1.616-.063-2.838-.138-3.362-.005-.035-.009-.08-.015-.109a1.699 1.699 0 0 1-.073-.242zm-6.374 13.799a4.91 4.91 0 0 1-.195-2.668l-.165-7.415h-2.989l-1.214 8.934a4.608 4.608 0 0 1-.264 1.149zm-2.1-18.527-.807-3.153v4.153zm.222 5.082h1.078l-.259-1.014zm8.296-15.638 2.687-3.33-3.734-2.613v1.23zm-2.664-43.988-1.558-.628a3.359 3.359 0 0 0-4.375 1.859l.27.109 5.965 2.406c.081-.201.153-.391.217-.569.403-1.12.486-1.811.397-2.259-.116-.59-.528-.761-.916-.918zm-.597 7.008-6.108-2.465a5.19 5.19 0 0 0-.377.753c-.437 1.085-.491 2.237-.152 3.243.309.914.911 1.592 1.698 1.91.787.317 1.691.249 2.548-.197.943-.49 1.703-1.356 2.141-2.44a5.44 5.44 0 0 0 .25-.804zm12.4 33.251a5.057 5.057 0 0 1-2.919 1.383l-2.308 2.859h9.47zm27.39-17.605H55.671l-6.782 8.403h15.603zm-55.458 5.529.009-.001a1.677 1.677 0 0 0 1.688-1.679c0-.922-.751-1.675-1.688-1.68h-.009c-.924 0-1.664.756-1.664 1.681 0 .939.74 1.679 1.664 1.679z" fill="#ff610d" opacity="1" data-original="#000000"></path></g></svg>