<svg xmlns="http://www.w3.org/2000/svg" version="1.1" xmlns:xlink="http://www.w3.org/1999/xlink" width="512" height="512" x="0" y="0" viewBox="0 0 64 64" style="enable-background:new 0 0 512 512" xml:space="preserve" class=""><g transform="matrix(0.7699999999999998,0,0,0.7699999999999998,7.359682881832125,7.360560426712034)"><path d="M31.165 61.873A2.84 2.84 0 0 0 32 62a2.806 2.806 0 0 0 .815-.123A37.446 37.446 0 0 0 44.054 56.5a1 1 0 0 0-1.154-1.631 35.478 35.478 0 0 1-10.655 5.091.838.838 0 0 1-.51 0 35.07 35.07 0 0 1-13.48-7.312 1 1 0 1 0-1.318 1.5 37.048 37.048 0 0 0 14.228 7.725ZM5.569 15.053a1 1 0 0 0-1.124.859C3.74 21.183 2.9 34.7 10.3 46.381a1 1 0 1 0 1.69-1.07c-7.05-11.124-6.239-24.08-5.564-29.134a1 1 0 0 0-.857-1.124ZM13.039 48.547a1 1 0 0 0-.152 1.407c.3.372.621.744.951 1.116a1 1 0 0 0 1.5-1.327 33.27 33.27 0 0 1-.889-1.044 1 1 0 0 0-1.41-.152ZM56.988 12.619a54.408 54.408 0 0 1-10.624-2.985A54.428 54.428 0 0 1 33.78 2.6a2.964 2.964 0 0 0-3.563 0 54.9 54.9 0 0 1-6.04 3.928 1 1 0 1 0 .979 1.744 56.943 56.943 0 0 0 6.264-4.081.95.95 0 0 1 1.158 0 56.432 56.432 0 0 0 13.052 7.3 56.468 56.468 0 0 0 11.025 3.1.97.97 0 0 1 .8.834c.643 4.226 1.622 15.188-3.17 25.664a1 1 0 1 0 1.818.833c5.017-10.967 4-22.394 3.33-26.8a2.974 2.974 0 0 0-2.445-2.503Z" fill="#ff610d" opacity="1" data-original="#000000"></path><path d="M31.035 54.827A2.827 2.827 0 0 0 32 55a2.774 2.774 0 0 0 .95-.169 32.343 32.343 0 0 0 4.026-1.731 1 1 0 0 0-.916-1.779 30.2 30.2 0 0 1-3.785 1.63.776.776 0 0 1-.565 0A28.5 28.5 0 0 1 19.986 45.3c-7.548-8.231-8.213-19.251-7.939-25.066a1.214 1.214 0 0 1 .115-.447 1 1 0 0 0-1.8-.864 3.252 3.252 0 0 0-.307 1.2c-.29 6.147.424 17.769 8.461 26.533a30.449 30.449 0 0 0 12.519 8.171ZM50.374 37a.983.983 0 0 0 .343.062 1 1 0 0 0 .939-.657 42.291 42.291 0 0 0 2.29-16.287 3.062 3.062 0 0 0-1.01-2.13A1 1 0 1 0 51.6 19.47a1.07 1.07 0 0 1 .35.745 40.271 40.271 0 0 1-2.169 15.5A1 1 0 0 0 50.374 37ZM31.611 11.082a.925.925 0 0 1 .886.066 60.9 60.9 0 0 0 9.058 4.818 1 1 0 0 0 .786-1.838 59.037 59.037 0 0 1-8.761-4.662 2.929 2.929 0 0 0-2.774-.214 1 1 0 0 0 .8 1.83ZM47.49 18.175a.989.989 0 0 0 .288.042 1 1 0 0 0 .286-1.958 28.237 28.237 0 0 1-1.448-.483 1 1 0 1 0-.678 1.882c.518.186 1.035.362 1.552.517Z" fill="#ff610d" opacity="1" data-original="#000000"></path><path d="M26.611 29.481a3.18 3.18 0 0 0-4.451 0l-1.252 1.277a3.221 3.221 0 0 0 0 4.484l7.662 7.819a3.106 3.106 0 0 0 4.45 0L47.092 28.7a3.221 3.221 0 0 0 0-4.484l-1.252-1.277A3.09 3.09 0 0 0 43.616 22a3.094 3.094 0 0 0-2.226.939l-9.8 10a1.132 1.132 0 0 1-1.592 0Zm6.409 4.857 9.8-10a1.107 1.107 0 0 1 1.593 0l1.252 1.278a1.209 1.209 0 0 1 0 1.684L31.591 41.662a1.132 1.132 0 0 1-1.592 0l-7.662-7.82a1.209 1.209 0 0 1 0-1.684l1.252-1.278a1.134 1.134 0 0 1 1.593 0l3.388 3.458a3.18 3.18 0 0 0 4.45 0ZM9 14a1 1 0 0 0 .819.983c6.341 1.168 7.03 1.857 8.2 8.2a1 1 0 0 0 1.966 0c1.168-6.341 1.857-7.03 8.2-8.2a1 1 0 0 0 0-1.966c-6.341-1.168-7.03-1.857-8.2-8.2a1 1 0 0 0-1.966 0c-1.168 6.341-1.857 7.03-8.2 8.2A1 1 0 0 0 9 14Zm10-4.709A6.6 6.6 0 0 0 23.709 14 6.6 6.6 0 0 0 19 18.709 6.6 6.6 0 0 0 14.291 14 6.6 6.6 0 0 0 19 9.291ZM59.181 49.017c-6.341-1.168-7.03-1.857-8.2-8.2a1 1 0 0 0-1.966 0c-1.168 6.341-1.857 7.03-8.2 8.2a1 1 0 0 0 0 1.966c6.341 1.168 7.03 1.857 8.2 8.2a1 1 0 0 0 1.966 0c1.168-6.341 1.857-7.03 8.2-8.2a1 1 0 0 0 0-1.966ZM50 54.709A6.6 6.6 0 0 0 45.291 50 6.6 6.6 0 0 0 50 45.291 6.6 6.6 0 0 0 54.709 50 6.6 6.6 0 0 0 50 54.709Z" fill="#ff610d" opacity="1" data-original="#000000"></path></g></svg>