<svg xmlns="http://www.w3.org/2000/svg" version="1.1" xmlns:xlink="http://www.w3.org/1999/xlink" width="512" height="512" x="0" y="0" viewBox="0 0 511 511.999" style="enable-background:new 0 0 512 512" xml:space="preserve" class=""><g><path d="M312.754 111.89H10.5c-5.523 0-10-4.48-10-10 0-5.523 4.477-10 10-10h302.254c5.523 0 10 4.477 10 10 0 5.52-4.477 10-10 10zM10.504 75.059a10.06 10.06 0 0 1-3.832-.77 10.223 10.223 0 0 1-3.25-2.16 10.2 10.2 0 0 1-1.238-1.52 10.089 10.089 0 0 1-1.488-3.598 9.654 9.654 0 0 1-.192-1.952 10.06 10.06 0 0 1 2.918-7.067c.473-.46.98-.883 1.531-1.25.54-.36 1.121-.672 1.719-.922.613-.25 1.23-.437 1.871-.57a9.98 9.98 0 0 1 5.781.57c.598.25 1.18.563 1.73.922.54.367 1.06.79 1.52 1.25.461.457.88.969 1.239 1.52.359.539.671 1.12.921 1.718.25.61.438 1.243.57 1.872.13.648.2 1.308.2 1.96 0 .649-.07 1.31-.2 1.95-.132.64-.32 1.27-.57 1.87a9.877 9.877 0 0 1-.921 1.727 9.508 9.508 0 0 1-1.239 1.524c-.46.457-.98.879-1.52 1.238-.55.36-1.132.668-1.73.918-.601.25-1.23.441-1.87.57s-1.302.2-1.95.2zM316.887 75.059H51.504c-5.524 0-10-4.48-10-10 0-5.524 4.476-10 10-10h265.383c9.664 0 17.527-7.864 17.527-17.532 0-9.664-7.863-17.527-17.527-17.527-5.524 0-10-4.477-10-10s4.476-10 10-10c20.691 0 37.527 16.836 37.527 37.527 0 20.696-16.836 37.532-37.527 37.532zM98.668 204.656c-5.52 0-10-4.476-10-10 0-5.52 4.48-10 10-10 9.668 0 17.531-7.86 17.531-17.527 0-9.664-7.863-17.527-17.531-17.527H10.5c-5.523 0-10-4.48-10-10 0-5.524 4.477-10 10-10h88.168c20.695 0 37.531 16.835 37.531 37.527s-16.836 37.527-37.531 37.527zM499.484 403.266h-.16c-3.722 0-7.136 2.07-8.863 5.367-5.383 10.305-15.945 16.707-27.559 16.707-10.43 0-20.109-5.195-25.898-13.895-3.402-5.12-9.078-8.18-15.176-8.18s-11.77 3.06-15.176 8.18c-5.785 8.7-15.468 13.895-25.898 13.895-1.246 0-2.48-.074-3.703-.223l15.457-51.695c3.726.582 7.469.871 11.203.871 11.918-.004 23.727-2.957 34.508-8.777 17.133-9.243 29.636-24.606 35.215-43.254l34.964-116.934c11.512-38.5-10.445-79.183-48.945-90.695-38.492-11.508-79.183 10.441-90.695 48.941l-33.469 111.934-29.055-102.16c-1.484-5.22-6.859-8.297-12.113-6.95l-158.367 40.778a10 10 0 0 0-2.48 18.36l19.855 11.39-50.04 87.219a10.005 10.005 0 0 0 3.7 13.652l133.402 76.531a31.024 31.024 0 0 1-23.73 11.012c-10.43 0-20.113-5.195-25.898-13.895-3.407-5.12-9.079-8.18-15.176-8.18-6.098 0-11.77 3.06-15.176 8.18-5.79 8.7-15.469 13.895-25.898 13.895s-20.114-5.195-25.899-13.895c-3.402-5.12-9.078-8.18-15.176-8.18-6.097 0-11.77 3.06-15.172 8.18-5.789 8.7-15.468 13.895-25.898 13.895-11.617 0-22.176-6.402-27.563-16.707a10.008 10.008 0 0 0-8.863-5.367h-.16c-5.523 0-10 4.476-10 10v66.66c0 2.336.8 4.484 2.145 6.187C16.805 502.125 33.672 512 52.164 512a50.983 50.983 0 0 0 41.074-20.715c9.625 13.02 24.793 20.715 41.075 20.715s31.449-7.695 41.074-20.715C185.012 504.305 200.18 512 216.46 512s31.45-7.695 41.07-20.715A50.99 50.99 0 0 0 298.61 512a50.982 50.982 0 0 0 41.07-20.715c9.626 13.02 24.794 20.715 41.075 20.715s31.45-7.695 41.074-20.715A50.994 50.994 0 0 0 462.902 512c18.493 0 35.36-9.875 44.438-25.887a9.953 9.953 0 0 0 2.144-6.187v-66.66c0-5.524-4.48-10-10-10zm-163.117-61.211a10.01 10.01 0 0 0 7.457 1.011 72.15 72.15 0 0 0 29.52 24.625l-14.528 48.586a31.49 31.49 0 0 1-3.96-4.832c-3.403-5.12-9.079-8.18-15.176-8.18-6.098 0-11.77 3.06-15.176 8.18-5.785 8.7-15.469 13.895-25.895 13.895-10.43 0-20.113-5.195-25.898-13.895a19.452 19.452 0 0 0-1.453-1.906l45.258-78.879zm16.586-55.82 34.965-116.93c6.848-22.899 27.922-37.735 50.684-37.735 5.003 0 10.09.72 15.12 2.223 27.934 8.355 43.864 37.875 35.512 65.809l-34.964 116.93c-4.047 13.53-13.118 24.679-25.551 31.386-9.442 5.094-19.961 7.164-30.407 6.09l9.637-32.219 30.086-16.234c4.86-2.621 6.672-8.688 4.05-13.547a10.001 10.001 0 0 0-13.55-4.055l-12.484 6.738 6.789-22.71 26.21-34.208c3.36-4.382 2.532-10.66-1.85-14.02-4.384-3.358-10.66-2.53-14.024 1.856l-21.617 28.211-6.325-17.199c-1.906-5.184-7.652-7.844-12.836-5.934-5.183 1.907-7.843 7.653-5.933 12.836l13.117 35.684c.04.11.082.215.125.324l-20.555 68.735c-22.023-11.477-33.574-37.371-26.199-62.032zm-63.289-98.036 35.34 124.274-17.406-9.985-3.118-1.789-22.68-84.55a9.998 9.998 0 0 0-12.296-7.055l-84.438 23.097-20.523-11.777zm-119.187 58.68 8.242 4.73a10.015 10.015 0 0 0 7.617.97l78.754-21.544 21.152 78.86a9.992 9.992 0 0 0 4.68 6.085l8.242 4.73-45.059 78.544-31.644-18.152 37.867-66c2.75-4.793 1.094-10.903-3.7-13.653l-48.054-27.57a9.994 9.994 0 0 0-7.594-.977 9.995 9.995 0 0 0-6.058 4.676l-37.867 66-31.64-18.152zm3.93 106.648 32.886-57.328 30.71 17.621-32.89 57.328zm315.077 123.504A31.005 31.005 0 0 1 462.902 492c-10.43 0-20.113-5.195-25.898-13.895-3.406-5.12-9.078-8.18-15.176-8.18s-11.773 3.06-15.176 8.177C400.863 486.805 391.184 492 380.754 492s-20.113-5.195-25.899-13.895c-3.406-5.12-9.078-8.18-15.175-8.18-6.098 0-11.77 3.06-15.176 8.177-5.785 8.703-15.469 13.898-25.895 13.898-10.43 0-20.113-5.195-25.898-13.895-3.406-5.12-9.082-8.18-15.176-8.18-6.098 0-11.773 3.06-15.176 8.177C236.57 486.805 226.891 492 216.461 492s-20.113-5.195-25.899-13.895c-3.406-5.12-9.078-8.18-15.175-8.18-6.098 0-11.77 3.06-15.176 8.177-5.785 8.703-15.469 13.898-25.899 13.898s-20.113-5.195-25.898-13.895c-3.402-5.12-9.078-8.18-15.176-8.18-6.097 0-11.77 3.06-15.172 8.177C72.277 486.805 62.594 492 52.164 492a31.005 31.005 0 0 1-26.582-14.969v-39.125a51.029 51.029 0 0 0 26.582 7.434 50.99 50.99 0 0 0 41.074-20.711c9.625 13.016 24.793 20.71 41.074 20.71s31.45-7.694 41.075-20.71c9.62 13.016 24.793 20.71 41.074 20.71s31.45-7.694 41.07-20.71a50.996 50.996 0 0 0 41.074 20.71 50.99 50.99 0 0 0 41.075-20.71c9.625 13.016 24.793 20.71 41.074 20.71s31.45-7.694 41.07-20.714a50.983 50.983 0 0 0 41.074 20.715c9.586 0 18.73-2.653 26.582-7.434v39.125zm0 0" fill="#ff5a13" opacity="1" data-original="#000000" class=""></path></g></svg>